Coordinates
version=1
nRows=32
nColumns=22
inDegrees=yes

Units are S.I. units (second, meters, Newtons, ...)
If the header above contains a line with 'inDegrees', this indicates whether rotational values are in degrees (yes) or radians (no).

endheader
time	pelvis_tilt	pelvis_list	pelvis_rotation	pelvis_tx	pelvis_ty	pelvis_tz	hip_flexion_r	hip_adduction_r	hip_rotation_r	knee_angle_r	ankle_angle_r	subtalar_angle_r	hip_flexion_l	hip_adduction_l	hip_rotation_l	knee_angle_l	ankle_angle_l	subtalar_angle_l	lumbar_extension	lumbar_bending	lumbar_rotation
      3.73000000	      7.04642669	     -3.63548999	    -90.44292788	      0.49210051	      1.07504308	      0.51917796	      4.08232000	     -6.72987334	     10.34803624	    -55.33328798	     -3.97841564	     21.02162895	      4.19000691	      7.00926010	     -0.50484020	     -8.84852232	      5.21320515	      2.22795383	     -3.26732881	     -8.90080114	     -1.87752574
      3.74000000	      6.97572220	     -3.73037285	    -90.60381661	      0.49407492	      1.07548983	      0.52355163	      4.68860365	     -6.53120950	     10.45656139	    -55.78044835	     -3.50692750	     20.90579365	      3.84379499	      7.06865668	     -0.62910253	     -8.85856370	      5.43735799	      1.93205598	     -3.47688959	     -8.84299294	     -2.06711355
      3.75000000	      6.90975567	     -3.83621915	    -90.75360200	      0.49596890	      1.07591209	      0.52775230	      5.28081921	     -6.33601236	     10.54124024	    -56.15416232	     -3.00294834	     20.60485083	      3.51548241	      7.13171413	     -0.72449409	     -8.90482575	      5.64446510	      1.63477389	     -3.71073642	     -8.79507564	     -2.24647664
      3.76000000	      6.86410662	     -3.95510606	    -90.90288788	      0.49782269	      1.07630226	      0.53180958	      5.86290273	     -6.17862869	     10.59584946	    -56.46315281	     -2.46526512	     20.17817659	      3.20323112	      7.21469375	     -0.85914001	     -8.98762301	      5.85692211	      1.36893653	     -3.96603638	     -8.76661633	     -2.41947941
      3.77000000	      6.84102552	     -4.06165688	    -91.03376638	      0.49967816	      1.07663935	      0.53576074	      6.45471052	     -6.07186278	     10.59044019	    -56.70639763	     -1.87172030	     19.54781416	      2.90082636	      7.32394918	     -0.94950819	     -9.05049454	      6.04281613	      1.08430437	     -4.20780695	     -8.75811380	     -2.60554095
      3.78000000	      6.83121610	     -4.15521204	    -91.15669567	      0.50151012	      1.07692660	      0.53962715	      7.05758511	     -6.00804107	     10.53169565	    -56.88976253	     -1.22747252	     18.73085016	      2.60494770	      7.44693433	     -1.01393715	     -9.08900979	      6.20438034	      0.80312202	     -4.42833626	     -8.76178019	     -2.79450805
      3.79000000	      6.87339500	     -4.24982510	    -91.26789808	      0.50336080	      1.07716278	      0.54331882	      7.66809920	     -6.03416617	     10.43527691	    -57.03180537	     -0.52807057	     17.84334979	      2.33227882	      7.62551907	     -1.09428802	     -9.15107066	      6.36387297	      0.55046408	     -4.66432657	     -8.81604529	     -2.99888392
      3.80000000	      6.89557243	     -4.32327826	    -91.36796235	      0.50517627	      1.07736562	      0.54694517	      8.28252997	     -6.06666506	     10.28773108	    -57.10706416	      0.23228042	     16.77677776	      2.06502411	      7.78053446	     -1.13112997	     -9.17652985	      6.49255458	      0.29116289	     -4.86615248	     -8.84412998	     -3.20267970
      3.81000000	      6.95461174	     -4.39674092	    -91.45838128	      0.50697371	      1.07754227	      0.55046488	      8.89181366	     -6.16728187	     10.11673719	    -57.14108057	      1.02001432	     15.69956617	      1.80275228	      7.97280781	     -1.16899864	     -9.19876637	      6.60618894	      0.05521195	     -5.06788295	     -8.90902688	     -3.43143459
      3.82000000	      7.01797035	     -4.46922839	    -91.53710729	      0.50872939	      1.07771426	      0.55390518	      9.48166860	     -6.29283614	      9.92010978	    -57.12064454	      1.82580982	     14.58306147	      1.53970954	      8.16658611	     -1.19567667	     -9.21011567	      6.71245925	     -0.17481017	     -5.26356487	     -8.97648465	     -3.67357852
      3.83000000	      7.08064995	     -4.54415599	    -91.60652185	      0.51042481	      1.07789400	      0.55727799	     10.04460672	     -6.43018189	      9.71176420	    -57.04801578	      2.63569553	     13.48511411	      1.26973968	      8.35581573	     -1.20652535	     -9.20919591	      6.80310933	     -0.39080229	     -5.45485442	     -9.04297079	     -3.92127065
      3.84000000	      7.13996255	     -4.62188759	    -91.66736270	      0.51204068	      1.07808763	      0.56058510	     10.57392357	     -6.56111794	      9.51363750	    -56.92223705	      3.43633920	     12.41284215	      0.99348989	      8.53728482	     -1.19867175	     -9.19739931	      6.87817273	     -0.59412321	     -5.64458445	     -9.10673799	     -4.18081192
      3.85000000	      7.18626391	     -4.70459092	    -91.71945716	      0.51357453	      1.07829797	      0.56384152	     11.06374477	     -6.67211712	      9.32590380	    -56.74450248	      4.22082407	     11.40300156	      0.70945921	      8.69982527	     -1.18597105	     -9.17825396	      6.95729102	     -0.78244994	     -5.83233020	     -9.15747443	     -4.43822801
      3.86000000	      7.21428318	     -4.79045702	    -91.76216676	      0.51502062	      1.07852372	      0.56704991	     11.51342950	     -6.75050305	      9.15527550	    -56.51714854	      4.98622306	     10.46763253	      0.42021538	      8.83745625	     -1.16959796	     -9.15302669	      7.04266694	     -0.95494111	     -6.01610759	     -9.19037980	     -4.69085539
      3.87000000	      7.22601991	     -4.87551336	    -91.78841819	      0.51638487	      1.07875976	      0.57019277	     11.92697327	     -6.79305412	      9.00535730	    -56.24579207	      5.73444128	      9.61857445	      0.13095285	      8.95239869	     -1.14064371	     -9.12124357	      7.12872755	     -1.10945457	     -6.19696965	     -9.20747938	     -4.94918089
      3.88000000	      7.21584812	     -4.95790178	    -91.79319655	      0.51767685	      1.07900330	      0.57326912	     12.30514031	     -6.79720359	      8.86100514	    -55.93181527	      6.47027346	      8.84437580	     -0.15406004	      9.03799120	     -1.10437093	     -9.08835761	      7.22945645	     -1.25214889	     -6.37394516	     -9.20222949	     -5.20680630
      3.89000000	      7.20035762	     -5.03217133	    -91.75761525	      0.51894645	      1.07923747	      0.57627604	     12.65560993	     -6.79400835	      8.69343520	    -55.58326175	      7.20642574	      8.21028145	     -0.42264068	      9.11257186	     -1.05174951	     -9.06755706	      7.37038026	     -1.37479834	     -6.54352372	     -9.19058383	     -5.48624624
      3.90000000	      7.13655090	     -5.09574891	    -91.71721453	      0.52009937	      1.07948610	      0.57920553	     12.97576798	     -6.71323084	      8.54783778	    -55.18946561	      7.94533296	      7.53359620	     -0.68784943	      9.12820705	     -0.97767442	     -9.02662917	      7.45758570	     -1.49593309	     -6.70027088	     -9.13065597	     -5.74295305
      3.91000000	      7.06797463	     -5.14779643	    -91.63555842	      0.52125624	      1.07971723	      0.58207250	     13.27367824	     -6.63978728	      8.35540871	    -54.76763004	      8.70445699	      6.96284760	     -0.93651044	      9.13353137	     -0.88925563	     -8.99155010	      7.58215130	     -1.59883783	     -6.84641235	     -9.06167210	     -6.00506728
      3.92000000	      6.99363779	     -5.18380110	    -91.51852811	      0.52239600	      1.07992999	      0.58489470	     13.54823331	     -6.56629510	      8.13254654	    -54.31311045	      9.46812947	      6.52990443	     -1.15729353	      9.12670671	     -0.78769480	     -8.97660236	      7.75927188	     -1.67906161	     -6.97239664	     -8.98625315	     -6.28450901
      3.93000000	      6.89484166	     -5.21627890	    -91.39476405	      0.52347405	      1.08015976	      0.58769223	     13.78410152	     -6.46623966	      7.89985575	    -53.81782659	     10.23290659	      6.03331974	     -1.38856719	      9.08881598	     -0.67025079	     -8.93373975	      7.89411859	     -1.75047728	     -7.08738126	     -8.88241896	     -6.54728830
      3.94000000	      6.78816611	     -5.24709030	    -91.25535249	      0.52450160	      1.08040768	      0.59047380	     13.97311256	     -6.36127492	      7.65312047	    -53.27600100	     10.98253644	      5.52441878	     -1.61938179	      9.03613951	     -0.54685030	     -8.88678105	      8.01923258	     -1.80523129	     -7.19273478	     -8.77476184	     -6.77526956
      3.95000000	      6.67968441	     -5.25072231	    -91.07611857	      0.52556234	      1.08061133	      0.59321757	     14.15330737	     -6.27739323	      7.35276561	    -52.70788390	     11.70623488	      5.21135051	     -1.80730125	      8.97623755	     -0.40245522	     -8.86836586	      8.21303951	     -1.83699674	     -7.26620669	     -8.65634180	     -7.03648248
      3.96000000	      6.56706994	     -5.25722962	    -90.88075529	      0.52657230	      1.08084643	      0.59594314	     14.27684521	     -6.19222319	      7.04360487	    -52.08426164	     12.39741781	      4.86631753	     -2.00359038	      8.90495610	     -0.24026003	     -8.83644219	      8.37558208	     -1.85348312	     -7.33778959	     -8.53726185	     -7.27410118
      3.97000000	      6.45225795	     -5.28154991	    -90.68886390	      0.52750044	      1.08113599	      0.59866573	     14.32713466	     -6.10274732	      6.74538534	    -51.39658401	     13.05448559	      4.44895035	     -2.23048641	      8.82397870	     -0.07252588	     -8.78000509	      8.46971397	     -1.84186145	     -7.41884414	     -8.42163013	     -7.47567853
      3.98000000	      6.35048837	     -5.25903752	    -90.46554373	      0.52843630	      1.08134537	      0.60132371	     14.38591851	     -6.03861814	      6.43125242	    -50.66911489	     13.68270274	      4.26603770	     -2.38011897	      8.74958834	      0.10922476	     -8.77178479	      8.64533100	     -1.82822570	     -7.44797445	     -8.31821794	     -7.68922975
      3.99000000	      6.24677252	     -5.25003411	    -90.23273549	      0.52931268	      1.08159742	      0.60396779	     14.36711589	     -5.97003888	      6.12839600	    -49.86217727	     14.28388810	      4.04885640	     -2.55109741	      8.66598944	      0.31643347	     -8.74899361	      8.77528414	     -1.78260429	     -7.48702398	     -8.21634768	     -7.88064834
      4.00000000	      6.14650363	     -5.23565282	    -90.00127756	      0.53011926	      1.08183894	      0.60658451	     14.29851067	     -5.89753946	      5.85670179	    -48.98174571	     14.86100143	      3.85833617	     -2.71053650	      8.57936906	      0.52288027	     -8.73352967	      8.90349197	     -1.71838530	     -7.51372654	     -8.12278084	     -8.04123420
      4.01000000	      6.04736121	     -5.23696753	    -89.77675136	      0.53083629	      1.08210150	      0.60918125	     14.15324740	     -5.81426784	      5.62638695	    -48.01780488	     15.41285525	      3.64172569	     -2.88939848	      8.48738393	      0.73020111	     -8.70988882	      8.99976325	     -1.61737592	     -7.55279491	     -8.03785606	     -8.16155061
      4.02000000	      5.95501011	     -5.17707360	    -89.54201151	      0.53152894	      1.08223275	      0.61172874	     14.02766452	     -5.73529815	      5.42293097	    -46.99476441	     15.92586587	      3.54810196	     -2.98017303	      8.39879532	      0.93324769	     -8.72543268	      9.16986807	     -1.56587289	     -7.51937329	     -7.95979708	     -8.27631441
      4.03000000	      5.86055994	     -5.14224630	    -89.31437615	      0.53214180	      1.08238952	      0.61427472	     13.81145005	     -5.64445300	      5.25784389	    -45.87918357	     16.39614698	      3.41913712	     -3.10353977	      8.30364974	      1.14898471	     -8.72974313	      9.30098719	     -1.49352626	     -7.50669521	     -7.88274399	     -8.35856919
      4.04000000	      5.77470493	     -5.07883304	    -89.09870582	      0.53265939	      1.08246106	      0.61677528	     13.57867935	     -5.54264596	      5.16992074	    -44.69901860	     16.81804576	      3.33790713	     -3.18296458	      8.21383054	      1.35149652	     -8.75365201	      9.44927037	     -1.45310473	     -7.45832428	     -7.82473667	     -8.41255265
